<?xml version="1.0" encoding="UTF-8"?>
<svg width="32px" height="32px" viewBox="0 0 32 32" version="1.1" xmlns="http://www.w3.org/2000/svg" xmlns:xlink="http://www.w3.org/1999/xlink">
    <!-- Generator: sketchtool 55 (78076) - https://sketchapp.com -->
    <title>DB533B35-037D-49F8-AF3E-D2E5002ED0DA</title>
    <desc>Created with sketchtool.</desc>
    <g id="billi" stroke="none" stroke-width="1" fill="none" fill-rule="evenodd">
        <g id="Sign-up-elements" transform="translate(-653.000000, -20.000000)" fill="#FFFFFF">
            <g id="feather" transform="translate(653.000000, 20.000000)">
                <path d="M21.2715941,29.2850587 C19.5894254,29.2850587 17.9688647,29.0141551 16.4493607,28.515161 C17.4324116,27.0233458 17.8205669,25.1769693 17.5144745,23.4078532 C17.4553015,23.0651023 17.1321635,22.8360276 16.7931972,22.8958183 C16.4539874,22.955609 16.2270359,23.2818744 16.2864523,23.6246252 C16.5494434,25.1454746 16.1878307,26.7359567 15.2946351,27.988117 L15.2417934,28.0624248 C14.9617566,27.9435815 14.6863465,27.8168646 14.4148326,27.68252 L15.2795375,24.9097565 C15.5459377,24.056201 15.2454461,23.1189877 14.5322046,22.5776726 C12.5395602,21.0656811 11.1384022,18.9988417 10.4699666,16.6670039 C10.4629048,16.6281276 10.4521904,16.5902356 10.4380667,16.5538199 C10.1706925,15.5836356 10.029213,14.5689158 10.0253168,13.5295908 C10.014846,10.718197 7.77065551,8.42646581 5.02239883,8.42105263 C5.01898972,8.42105263 5.0158241,8.42105263 5.01241493,8.42105263 C3.67530015,8.42105263 2.41805672,8.94662038 1.47153244,9.90130336 C0.522572959,10.8584469 0,12.1315215 0,13.4862856 C0,16.3872424 0.562508702,19.2030652 1.67194133,21.8557551 C1.92592253,22.4632583 2.20693339,23.0552602 2.5122952,23.6322529 C2.51643493,23.6406186 2.52057458,23.6487383 2.52495774,23.6568581 C3.50508647,25.5029886 4.74504071,27.1894312 6.22753109,28.6873977 C6.23532342,28.6952713 6.24311575,28.702899 6.25139507,28.7102805 L7.03988128,29.4265388 C7.55709698,29.8967448 8.22236704,30.1457498 8.89859498,30.1457498 C9.19640803,30.1457498 9.49641265,30.0972774 9.78692036,29.9981184 L13.6019954,28.6942871 C13.8462362,28.8202659 14.0933991,28.9398473 14.3432406,29.0535235 C13.3906285,29.8765685 12.226406,30.4365836 10.9857213,30.6560622 L10.4555995,30.7495621 C10.1163897,30.8095989 9.88943816,31.1358643 9.94885466,31.4786151 C10.0016964,31.7844582 10.2649309,32 10.562257,32 C10.5978095,32 10.633849,31.9970474 10.670132,31.99065 L11.2004973,31.8969041 C12.8719517,31.6013952 14.426034,30.7815489 15.6231305,29.5722018 C17.4124437,30.2114457 19.3162068,30.5448466 21.2713506,30.5448466 C21.6156741,30.5448466 21.8947368,30.2626246 21.8947368,29.9149526 C21.8947368,29.5670347 21.6159176,29.2850587 21.2715941,29.2850587 L21.2715941,29.2850587 Z M13.7834105,23.5850108 C14.0746488,23.8062118 14.1981084,24.1863627 14.0904769,24.531082 L13.2983381,27.0713261 C10.9158339,25.6383174 8.94047874,23.5840266 7.59240601,21.130885 C8.49241989,20.3914978 9.23780474,19.4892239 9.79471269,18.4713055 C9.90550987,18.7299065 10.0243429,18.986293 10.1529163,19.2394808 C11.0154295,20.9345353 12.2707249,22.4371768 13.7834105,23.5850108 Z M2.35230899,10.792997 C3.06335891,10.0755085 4.00793517,9.68108659 5.01265842,9.68108659 L5.01996376,9.68108659 C7.08468716,9.68502342 8.77075205,11.4135409 8.77854438,13.5345119 C8.7826841,14.6390407 8.92538108,15.7162578 9.20249577,16.7582893 C8.75151479,18.0040522 8.00004214,19.1063665 7.01601724,19.9746852 C6.12963994,17.9942101 5.63604466,15.797455 5.63604466,13.4862856 C5.63604466,13.1383677 5.35698194,12.8563917 5.01265842,12.8563917 C4.66833496,12.8563917 4.38927219,13.1383677 4.38927219,13.4862856 C4.38927219,14.1872887 4.43115595,14.8814022 4.5127319,15.5664119 C3.39112373,15.4999778 2.28558715,15.1988097 1.28232493,14.6857907 C1.259435,14.287678 1.24677247,13.888089 1.24677247,13.4862856 C1.24677247,12.4683672 1.63931098,11.5119618 2.35230899,10.792997 Z M1.4162556,16.1311019 C2.46213213,16.5614475 3.58276625,16.8025787 4.71216681,16.836534 C5.18701176,19.2623637 6.17761145,21.5422845 7.62722793,23.5426898 C6.22972267,23.4484518 4.84561042,23.205106 3.4960766,22.8160973 C3.25305341,22.3431848 3.0270759,21.859692 2.82033571,21.3653728 C2.11683456,19.6831132 1.64807735,17.9307286 1.4162556,16.1311019 L1.4162556,16.1311019 Z M9.38732006,28.8050107 C8.86425999,28.9836447 8.28421861,28.863079 7.87341681,28.4898176 L7.09734963,27.7848778 C6.05585632,26.7307897 5.14196238,25.5777885 4.36175555,24.3371927 C5.77655005,24.6553384 7.2200788,24.8258526 8.67188692,24.8455368 C8.88447135,25.0856838 9.10387407,25.321402 9.33106918,25.5512149 C10.2008878,26.4301137 11.1496037,27.2005035 12.1606583,27.8569711 L9.38732006,28.8050107 Z" id="Shape"></path>
                <path d="M30.3278337,10.1440763 C30.2102196,9.86259412 30.0850567,9.58012769 29.9557542,9.30455069 C29.8084322,8.99034371 29.4368396,8.85624592 29.125637,9.00486073 C28.8144344,9.15396754 28.6817228,9.52944117 28.8290448,9.84389425 C28.9505551,10.1032319 29.0686562,10.369459 29.1794522,10.6344558 C29.6808342,11.8334618 30.062167,13.0681452 30.3246681,14.3301402 C29.2291277,13.5617233 27.9699502,13.0396033 26.6511134,12.8152049 C25.8239183,10.4464729 24.4770781,8.27605794 22.6687911,6.44863793 C21.7989822,5.56974413 20.8502768,4.79960486 19.8392335,4.14289503 L22.6125409,3.19510692 C23.1355951,3.01622797 23.7158735,3.13679287 24.1264272,3.51005207 L24.9024858,4.21498793 C25.3748904,4.69331087 25.8270839,5.19845334 26.2466474,5.71712863 C26.4648301,5.98630828 26.8573643,6.02616856 27.1240051,5.80595299 C27.3904023,5.58573748 27.4298505,5.18885734 27.2119113,4.9194316 C26.7626399,4.36434078 26.2783034,3.82376697 25.7722947,3.31247325 C25.7645024,3.30459962 25.7567102,3.29697202 25.748431,3.28959046 L24.9599535,2.57333636 C24.2148205,1.89620429 23.1623809,1.67721896 22.2131885,2.00176011 L18.3981559,3.30558382 C18.1539178,3.17960576 17.9067577,3.06002499 17.6569189,2.94634951 C18.6092769,2.12330928 19.77373,1.56329738 21.0141574,1.34406608 L21.5445168,1.25032064 C21.8834793,1.19028429 22.1104283,0.864020768 22.051256,0.521271887 C21.9918402,0.17876904 21.6689491,-0.0503043591 21.3297432,0.0094860242 L20.7993837,0.102985364 C19.1281915,0.398492474 17.5738829,1.21858009 16.3767998,2.42767422 C14.5875064,1.78868007 12.6837645,1.45528109 10.7286425,1.45528109 C10.3843228,1.45528109 10.1052632,1.73725538 10.1052632,2.08517138 C10.1052632,2.43284128 10.3843228,2.71506167 10.7286425,2.71506167 C12.4322212,2.71506167 14.0727315,2.99285312 15.6092641,3.50414685 C14.7491954,5.03409134 14.3581224,6.76358307 14.477928,8.52678382 C14.5003308,8.8591986 14.7742767,9.11361519 15.0991158,9.11361519 C15.1134827,9.11361519 15.1278497,9.11312312 15.1424601,9.11213886 C15.4858057,9.08827193 15.7451413,8.78784381 15.721521,8.44066598 C15.6141342,6.85905082 15.9857267,5.30893018 16.7941717,3.95245161 C17.0617865,4.06686526 17.3255052,4.1889065 17.5850842,4.31759114 L16.8416557,6.70182435 C16.51219,7.75836686 16.867224,8.93252173 17.7253445,9.62367868 C19.5238913,11.0719343 20.8115591,12.9955602 21.471221,15.1457989 C21.4738996,15.155887 21.4768217,15.1657291 21.4802308,15.1755711 C21.8001997,16.2294071 21.9704115,17.3371283 21.9745511,18.4704386 C21.985022,21.2818162 24.2294309,23.5735342 26.9774135,23.5789474 L26.9873973,23.5789474 C28.3244972,23.5789474 29.5817266,23.0533827 30.5284839,22.0987052 C31.4774328,21.1418132 32,19.8687459 32,18.5137436 C32,15.6128036 31.4374976,12.7969971 30.3278337,10.1440763 Z M18.5023771,8.63824486 C18.0445829,8.26966059 17.8551341,7.64346108 18.030703,7.08049663 L18.7018098,4.92878156 C21.1914309,6.42624734 23.2364072,8.60207536 24.585439,11.2025873 C23.6118958,11.7323349 22.777639,12.5029663 22.1659481,13.4303321 C21.3613992,11.5849504 20.1175626,9.93886986 18.5023771,8.63824486 Z M29.6477172,21.2070167 C28.9364316,21.924255 27.9918659,22.3189207 26.9873973,22.3189207 C26.9849622,22.3189207 26.9822836,22.3189207 26.9798486,22.3189207 C24.9151482,22.3149839 23.229102,20.5862303 23.2213097,18.4652716 C23.2169265,17.2793063 23.0493934,16.1181921 22.7328336,15.0087486 C23.2113259,13.8791289 24.0621412,12.9352777 25.1216425,12.3432793 C25.9210778,14.2398395 26.364018,16.325367 26.364018,18.5134976 C26.364018,18.8614135 26.6430776,19.1433879 26.9873973,19.1433879 C27.331717,19.1433879 27.6107766,18.8614135 27.6107766,18.5134976 C27.6107766,17.0344856 27.4249804,15.5845077 27.0665373,14.1901373 C28.4009586,14.5328861 29.6379769,15.2311786 30.6241824,16.209477 C30.7091665,16.9700203 30.7532414,17.7384372 30.7532414,18.5134976 C30.7532414,19.5314101 30.3604637,20.488056 29.6477172,21.2070167 Z M27.6670268,7.70792644 C27.6665398,7.70718827 27.6638612,7.70300542 27.6633743,7.70202122 C27.4787955,7.40897459 27.5630491,7.0187379 27.8525796,6.83173922 C28.1421101,6.64474054 28.5258779,6.72815174 28.7116742,7.02021417 C28.7121612,7.02119838 28.7148398,7.02513519 28.7153268,7.02611939 C28.8999055,7.31916603 28.8156519,7.70940272 28.5261214,7.8964014 C28.4216567,7.96381937 28.3050166,7.99605199 28.1898375,7.99605199 C27.9855347,7.99605199 27.7858585,7.89467909 27.6670268,7.70792644 Z" id="Shape"></path>
            </g>
        </g>
    </g>
</svg>