<?xml version="1.0" encoding="UTF-8"?>
<svg width="48px" height="48px" viewBox="0 0 48 48" version="1.1" xmlns="http://www.w3.org/2000/svg" xmlns:xlink="http://www.w3.org/1999/xlink">
    <!-- Generator: sketchtool 55 (78076) - https://sketchapp.com -->
    <title>AB6D6605-D57D-4462-A2E3-4EEB7C43A3D5</title>
    <desc>Created with sketchtool.</desc>
    <defs>
        <linearGradient x1="24.7599345%" y1="-1.46041526%" x2="70.5208407%" y2="86.1848556%" id="linearGradient-1">
            <stop stop-color="#1CC4C8" offset="0%"></stop>
            <stop stop-color="#3DD6A5" offset="100%"></stop>
        </linearGradient>
    </defs>
    <g id="billi" stroke="none" stroke-width="1" fill="none" fill-rule="evenodd">
        <g id="Landing-page-" transform="translate(-138.000000, -34.000000)" fill="url(#linearGradient-1)">
            <g id="feather" transform="translate(138.000000, 33.976562)">
                <path d="M31.9073912,43.9275881 C29.3841381,43.9275881 26.953297,43.5212327 24.6740411,42.7727416 C26.1486174,40.5350188 26.7308504,37.7654539 26.2717118,35.1117797 C26.1829523,34.5976534 25.6982452,34.2540414 25.1897958,34.3437274 C24.6809811,34.4334134 24.3405538,34.9228115 24.4296785,35.4369378 C24.8241651,37.7182119 24.281746,40.1039351 22.9419527,41.9821755 L22.8626901,42.0936372 C22.4426349,41.9153722 22.0295198,41.7252969 21.6222489,41.52378 L22.9193062,37.3646347 C23.3189065,36.0843014 22.8681691,34.6784816 21.7983068,33.8665089 C18.8093403,31.5985217 16.7076033,28.4982625 15.7049499,25.0005059 C15.6943572,24.9421914 15.6782855,24.8853534 15.6571001,24.8307298 C15.2560388,23.3754533 15.0438195,21.8533737 15.0379753,20.2943862 C15.0222689,16.0772956 11.6559833,12.6396987 7.53359825,12.6315789 C7.52848458,12.6315789 7.52373615,12.6315789 7.51862239,12.6315789 C5.51295022,12.6315789 3.62708509,13.4199306 2.20729866,14.851955 C0.783859439,16.2876703 0,18.1972823 0,20.2294284 C0,24.5808636 0.843763053,28.8045977 2.50791199,32.7836327 C2.88888379,33.6948874 3.31040008,34.5828903 3.76844281,35.4483793 C3.77465239,35.4609279 3.78086188,35.4731075 3.78743661,35.4852871 C5.2576297,38.2544829 7.11756106,40.7841468 9.34129664,43.0310965 C9.35298513,43.042907 9.36467362,43.0543485 9.3770926,43.0654208 L10.5598219,44.1398082 C11.3356455,44.8451172 12.3335506,45.2186246 13.3478925,45.2186246 C13.794612,45.2186246 14.244619,45.1459161 14.6803805,44.9971775 L20.402993,43.0414307 C20.7693542,43.2303989 21.1400986,43.409771 21.5148609,43.5802853 C20.0859428,44.8148527 18.339609,45.6548753 16.4785819,45.9840933 L15.6833992,46.1243432 C15.1745846,46.2143983 14.8341572,46.7037964 14.923282,47.2179227 C15.0025446,47.6766873 15.3973964,48 15.8433855,48 C15.8967142,48 15.9507735,47.9955711 16.005198,47.985975 L16.800746,47.8453561 C19.3079275,47.4020929 21.6390511,46.1723234 23.4346957,44.3583027 C26.1186656,45.3171685 28.9743103,45.8172699 31.9070259,45.8172699 C32.4235112,45.8172699 32.8421053,45.3939368 32.8421053,44.872429 C32.8421053,44.3505521 32.4238764,43.9275881 31.9073912,43.9275881 L31.9073912,43.9275881 Z M20.6751158,35.3775162 C21.1119732,35.7093177 21.2971627,36.279544 21.1357154,36.7966229 L19.9475072,40.6069891 C16.3737508,38.4574761 13.4107181,35.3760399 11.388609,31.6963275 C12.7386298,30.5872467 13.8567071,29.2338359 14.692069,27.7069583 C14.8582648,28.0948598 15.0365143,28.4794395 15.2293744,28.8592212 C16.5231443,31.4018029 18.4060873,33.6557652 20.6751158,35.3775162 Z M3.52846348,16.1894954 C4.59503836,15.1132627 6.01190276,14.5216299 7.51898763,14.5216299 L7.52994564,14.5216299 C10.6270307,14.5275351 13.1561281,17.1203114 13.1678166,20.3017678 C13.1740262,21.9585611 13.3880716,23.5743867 13.8037437,25.137434 C13.1272722,27.0060783 12.0000632,28.6595498 10.5240259,29.9620278 C9.19445991,26.9913151 8.45406698,23.6961825 8.45406698,20.2294284 C8.45406698,19.7075515 8.03547292,19.2845875 7.51898763,19.2845875 C7.00250245,19.2845875 6.58390829,19.7075515 6.58390829,20.2294284 C6.58390829,21.280933 6.64673393,22.3221033 6.76909785,23.3496178 C5.0866856,23.2499667 3.42838072,22.7982146 1.9234874,22.028686 C1.8891525,21.431517 1.8701587,20.8321336 1.8701587,20.2294284 C1.8701587,18.7025508 2.45896648,17.2679428 3.52846348,16.1894954 Z M2.1243834,24.1966529 C3.69319819,24.8421712 5.37414938,25.203868 7.06825021,25.2548009 C7.78051764,28.8935456 9.26641717,32.3134267 11.4408419,35.3140347 C9.34458401,35.1726776 7.26841564,34.8076591 5.24411491,34.2241459 C4.87958011,33.5147771 4.54061385,32.789538 4.23050357,32.0480593 C3.17525185,29.5246698 2.47211603,26.8960929 2.1243834,24.1966529 L2.1243834,24.1966529 Z M14.0809801,43.2075161 C13.29639,43.475467 12.4263279,43.2946185 11.8101252,42.7347265 L10.6460245,41.6773167 C9.08378448,40.0961845 7.71294357,38.3666827 6.54263332,36.5057891 C8.66482508,36.9830075 10.8301182,37.2387789 13.0078304,37.2683052 C13.326707,37.6285258 13.6558111,37.982103 13.9966038,38.3268223 C15.3013317,39.6451705 16.7244056,40.8007553 18.2409874,41.7854566 L14.0809801,43.2075161 Z" id="Shape"></path>
                <path d="M45.4917506,15.2161145 C45.3153293,14.7938912 45.1275851,14.3701915 44.9336313,13.956826 C44.7126482,13.4855156 44.1552594,13.2843689 43.6884555,13.5072911 C43.2216515,13.7309513 43.0225841,14.2941618 43.2435672,14.7658414 C43.4258326,15.1548479 43.6029843,15.5541884 43.7691783,15.9516836 C44.5212513,17.7501927 45.0932505,19.6022178 45.4870022,21.4952103 C43.8436916,20.342585 41.9549253,19.5594049 39.9766701,19.2228073 C38.7358774,15.6697093 36.7156171,12.4140869 34.0031867,9.67295689 C32.6984733,8.35461619 31.2754152,7.19940729 29.7588503,6.21434255 L33.9188113,4.79266038 C34.7033926,4.52434195 35.5738103,4.70518931 36.1896408,5.2650781 L37.3537286,6.32248189 C38.0623356,7.03996631 38.7406258,7.79768001 39.3699711,8.57569295 C39.6972452,8.97946242 40.2860464,9.03925283 40.6860076,8.70892948 C41.0856034,8.37860623 41.1447758,7.78328601 40.8178669,7.37914739 C40.1439598,6.54651116 39.4174551,5.73565046 38.658442,4.96870987 C38.6467537,4.95689942 38.6350653,4.94545803 38.6226465,4.9343857 L37.4399303,3.86000453 C36.3222307,2.84430644 34.7435713,2.51582844 33.3197828,3.00264016 L27.5972338,4.95837573 C27.2308767,4.76940864 26.8601366,4.59003749 26.4853784,4.41952427 C27.9139154,3.18496392 29.660595,2.34494607 31.5212361,2.01609912 L32.3167753,1.87548096 C32.825219,1.78542643 33.1656424,1.29603115 33.076884,0.78190783 C32.9877603,0.26815356 32.5034237,-0.0754565387 31.9946147,0.0142290363 L31.1990756,0.154478047 C28.6922873,0.597738711 26.3608243,1.82787014 24.5651997,3.64151134 C21.8812597,2.6830201 19.0256467,2.18292163 16.0929637,2.18292163 C15.5764842,2.18292163 15.1578947,2.60588307 15.1578947,3.12775707 C15.1578947,3.64926192 15.5764842,4.07259251 16.0929637,4.07259251 C18.6483318,4.07259251 21.1090972,4.48927967 23.4138961,5.25622027 C22.1237932,7.55113702 21.5371835,10.1453746 21.716892,12.7901757 C21.7504961,13.2887979 22.1614151,13.6704228 22.6486736,13.6704228 C22.6702241,13.6704228 22.6917745,13.6696847 22.7136902,13.6682083 C23.2287086,13.6324079 23.617712,13.1817657 23.5822815,12.660999 C23.4212013,10.2885762 23.97859,7.96339527 25.1912576,5.92867741 C25.5926798,6.10029789 25.9882578,6.28335975 26.3776263,6.47638671 L25.2624836,10.0527365 C24.768285,11.6375503 25.3008361,13.3987826 26.5880168,14.435518 C29.2858369,16.6079014 31.2173387,19.4933402 32.2068315,22.7186984 C32.2108494,22.7338305 32.2152326,22.7485936 32.2203463,22.7633566 C32.7002996,24.3441106 32.9556173,26.0056924 32.9618267,27.705658 C32.9775329,31.9227243 36.3441464,35.3603013 40.4661202,35.3684211 L40.481096,35.3684211 C42.4867458,35.3684211 44.3725899,34.580074 45.7927259,33.1480578 C47.2161492,31.7127198 48,29.8031188 48,27.7706154 C48,23.4192054 47.1562463,19.1954956 45.4917506,15.2161145 Z M27.7535657,12.9573673 C27.0668744,12.4044909 26.7827012,11.4651916 27.0460545,10.6207449 L28.0527147,7.39317234 C31.7871463,9.63937101 34.8546107,12.903113 36.8781585,16.8038809 C35.4178437,17.5985023 34.1664585,18.7544494 33.2489221,20.1454982 C32.0420988,17.3774256 30.1763439,14.9083048 27.7535657,12.9573673 Z M44.4715758,31.8105251 C43.4046474,32.8863826 41.9877989,33.478381 40.481096,33.478381 C40.4774433,33.478381 40.4734254,33.478381 40.4697729,33.478381 C37.3727222,33.4724758 34.8436529,30.8793455 34.8319646,27.6979074 C34.8253898,25.9189594 34.57409,24.1772881 34.0992504,22.5131229 C34.8169889,20.8186934 36.0932118,19.4029166 37.6824638,18.5149189 C38.8816167,21.3597593 39.5460271,24.4880505 39.5460271,27.7702464 C39.5460271,28.2921203 39.9646165,28.7150818 40.481096,28.7150818 C40.9975754,28.7150818 41.416165,28.2921203 41.416165,27.7702464 C41.416165,25.5517284 41.1374706,23.3767616 40.5998059,21.2852059 C42.6014379,21.7993292 44.4569653,22.8467679 45.9362736,24.3142155 C46.0637497,25.4550304 46.1298621,26.6076558 46.1298621,27.7702464 C46.1298621,29.2971152 45.5406955,30.732084 44.4715758,31.8105251 Z M41.5005402,11.5618897 C41.4998098,11.5607824 41.4957919,11.5545081 41.4950614,11.5530318 C41.2181933,11.1134619 41.3445736,10.5281068 41.7788694,10.2476088 C42.2131651,9.96711081 42.7888169,10.0922276 43.0675113,10.5303213 C43.0682418,10.5317976 43.0722597,10.5377028 43.0729902,10.5391791 C43.3498583,10.978749 43.2234778,11.5641041 42.7891821,11.8446021 C42.6324851,11.9457291 42.4575249,11.994078 42.2847563,11.994078 C41.978302,11.994078 41.6787878,11.8420186 41.5005402,11.5618897 Z" id="Shape"></path>
            </g>
        </g>
    </g>
</svg>