<?xml version="1.0" encoding="UTF-8"?>
<svg width="24px" height="24px" viewBox="0 0 24 24" version="1.1" xmlns="http://www.w3.org/2000/svg" xmlns:xlink="http://www.w3.org/1999/xlink">
    <!-- Generator: sketchtool 55 (78076) - https://sketchapp.com -->
    <title>8CDF3AC3-C41F-415F-9625-4BB3907ACCD7</title>
    <desc>Created with sketchtool.</desc>
    <g id="billi" stroke="none" stroke-width="1" fill="none" fill-rule="evenodd">
        <g id="Dashboard-2" transform="translate(-57.000000, -175.000000)" fill="#677897">
            <g id="Icons/home-alt-Copy" transform="translate(57.000000, 175.000000)">
                <path d="M14.1589289,11.7160717 L10.3017861,10.6339288 C9.65357178,10.451786 9.19821464,9.86250023 9.19821464,9.20357164 C9.19821464,8.38392876 9.88392892,7.71428588 10.7250004,7.71428588 L13.1357146,7.71428588 C13.7357146,7.71428588 14.3089289,7.90714303 14.7750004,8.25535732 C14.9464289,8.38392876 15.1821432,8.36250018 15.3321432,8.21250018 L15.9375004,7.59642873 C16.1196432,7.41428587 16.0982147,7.11428586 15.8946432,6.95357157 C15.1125004,6.33214298 14.1482146,5.99464297 13.1303575,5.99464297 L12.8571432,5.99464297 L12.8571432,3.85178576 C12.8571432,3.61607147 12.6642861,3.42321432 12.4285718,3.42321432 L11.5714289,3.42321432 C11.3357146,3.42321432 11.1428575,3.61607147 11.1428575,3.85178576 L11.1428575,5.99464297 L10.7250004,5.99464297 C8.94107178,5.99464297 7.48392892,7.4303573 7.48392892,9.1982145 C7.48392892,10.6232145 8.45357178,11.8875003 9.83571464,12.2785717 L13.6928575,13.3607146 C14.3410718,13.5428575 14.7964289,14.1321432 14.7964289,14.7910718 C14.7964289,15.6107147 14.1107146,16.2803576 13.2696432,16.2803576 L10.8589289,16.2803576 C10.2589289,16.2803576 9.68571464,16.0875004 9.21964321,15.7392861 C9.04821464,15.6107147 8.81250035,15.6321433 8.66250035,15.7821433 L8.05714321,16.3982147 C7.87500035,16.5803576 7.89642892,16.8803576 8.10000035,17.0410719 C8.88214321,17.6625005 9.84642892,18.0000005 10.8642861,18.0000005 L11.1428575,18.0000005 L11.1428575,20.1428577 C11.1428575,20.378572 11.3357146,20.5714291 11.5714289,20.5714291 L12.4285718,20.5714291 C12.6642861,20.5714291 12.8571432,20.378572 12.8571432,20.1428577 L12.8571432,18.0000005 L13.2750004,18.0000005 C15.0589289,18.0000005 16.5160718,16.5642862 16.5160718,14.796429 C16.5107147,13.3714289 15.5464289,12.1071432 14.1589289,11.7160717 L14.1589289,11.7160717 Z M21.4285714,0 L2.57142857,0 C1.15178571,0 0,1.15178571 0,2.57142857 L0,21.4285714 C0,22.8482143 1.15178571,24 2.57142857,24 L21.4285714,24 C22.8482143,24 24,22.8482143 24,21.4285714 L24,2.57142857 C24,1.15178571 22.8482143,0 21.4285714,0 Z M22.2857146,21.4285717 C22.2857146,21.9000003 21.9000003,22.2857146 21.4285717,22.2857146 L2.57142866,22.2857146 C2.10000008,22.2857146 1.71428579,21.9000003 1.71428579,21.4285717 L1.71428579,2.57142866 C1.71428579,2.10000008 2.10000008,1.71428579 2.57142866,1.71428579 L21.4285717,1.71428579 C21.9000003,1.71428579 22.2857146,2.10000008 22.2857146,2.57142866 L22.2857146,21.4285717 Z" id="Shape"></path>
            </g>
        </g>
    </g>
</svg>