<?xml version="1.0" encoding="UTF-8"?>
<svg width="28px" height="24px" viewBox="0 0 28 24" version="1.1" xmlns="http://www.w3.org/2000/svg" xmlns:xlink="http://www.w3.org/1999/xlink">
    <!-- Generator: sketchtool 55 (78076) - https://sketchapp.com -->
    <title>14BF60CC-C409-4C41-A9C8-D11555BEB01B</title>
    <desc>Created with sketchtool.</desc>
    <g id="billi" stroke="none" stroke-width="1" fill="none" fill-rule="evenodd">
        <g id="Dashboard-2" transform="translate(-55.000000, -82.000000)" fill="#1CC4C8">
            <g id="Icons/home-alt" transform="translate(55.000000, 82.000000)">
                <path d="M27.2678577,10.5621427 L14.7937503,0.383571421 C14.1625399,-0.125530799 13.2617463,-0.125530799 12.630536,0.383571421 L0.160714289,10.5621427 C-0.0224446495,10.71141 -0.0502421036,10.9807577 0.0985714304,11.1642855 L0.639642869,11.8291069 C0.788267284,12.0113963 1.0560326,12.0398463 1.23964288,11.8928569 L3.42857149,10.1046427 L3.42857149,23.1224995 C3.42857149,23.5958865 3.81232743,23.9796424 4.28571437,23.9796424 L11.1428574,23.9796424 C11.6162443,23.9796424 12.0000002,23.5958865 12.0000002,23.1224995 L12.0000002,16.2653568 L15.4285717,16.2814283 L15.4285717,23.1428567 C15.4285717,23.6162436 15.8123277,23.9999995 16.2857146,23.9999995 L23.1428576,23.982321 C23.6162445,23.982321 24.0000005,23.598565 24.0000005,23.1251781 L24.0000005,10.1046427 L26.1889291,11.8928569 C26.3725407,12.0420336 26.6422991,12.0142185 26.7916077,11.8307141 L27.3326791,11.1658926 C27.4043515,11.0773172 27.4378021,10.9638472 27.4256387,10.8505573 C27.4134754,10.7372674 27.3566996,10.6334845 27.2678577,10.5621427 Z M22.2798219,22.2723211 L22.285179,22.2723211 L17.1423217,22.2883926 L17.1423217,15.4221427 C17.1408613,14.9504057 16.7595875,14.5679368 16.2878574,14.5649998 L11.1450002,14.5505356 C10.917208,14.5498237 10.6985016,14.6398152 10.5371763,14.8006379 C10.3758511,14.9614606 10.2851776,15.1798851 10.2851787,15.4076784 L10.2851787,22.2723211 L5.14285718,22.2723211 L5.14285718,8.7058928 L13.714286,1.7110715 L22.2857147,8.7058928 L22.2798219,22.2723211 Z" id="Shape"></path>
            </g>
        </g>
    </g>
</svg>