<?xml version="1.0" encoding="UTF-8"?>
<svg width="21px" height="24px" viewBox="0 0 21 24" version="1.1" xmlns="http://www.w3.org/2000/svg" xmlns:xlink="http://www.w3.org/1999/xlink">
    <!-- Generator: sketchtool 55 (78076) - https://sketchapp.com -->
    <title>5F72A1B6-0355-4C8A-AD97-F8E2A14F6FF9</title>
    <desc>Created with sketchtool.</desc>
    <g id="billi" stroke="none" stroke-width="1" fill="none" fill-rule="evenodd">
        <g id="Dashboard-2" transform="translate(-59.000000, -268.000000)" fill="#677897">
            <g id="Icons/home-alt-Copy-2" transform="translate(59.000000, 268.000000)">
                <path d="M14.7,13.5 C13.3546875,13.5 12.7078125,14.25 10.5,14.25 C8.2921875,14.25 7.65,13.5 6.3,13.5 C2.821875,13.5 0,16.321875 0,19.8 L0,21.75 C0,22.9921875 1.0078125,24 2.25,24 L18.75,24 C19.9921875,24 21,22.9921875 21,21.75 L21,19.8 C21,16.321875 18.178125,13.5 14.7,13.5 Z M19.5,21.75 C19.5,22.1625 19.1625,22.5 18.75,22.5 L2.25,22.5 C1.8375,22.5 1.5,22.1625 1.5,21.75 L1.5,19.8 C1.5,17.1515625 3.6515625,15 6.3,15 C7.21875,15 8.1328125,15.75 10.5,15.75 C12.8625,15.75 13.78125,15 14.7,15 C17.3484375,15 19.5,17.1515625 19.5,19.8 L19.5,21.75 Z M10.5,12 C13.8140625,12 16.5,9.3140625 16.5,6 C16.5,2.6859375 13.8140625,0 10.5,0 C7.1859375,0 4.5,2.6859375 4.5,6 C4.5,9.3140625 7.1859375,12 10.5,12 Z M10.5,1.5 C12.9796875,1.5 15,3.5203125 15,6 C15,8.4796875 12.9796875,10.5 10.5,10.5 C8.0203125,10.5 6,8.4796875 6,6 C6,3.5203125 8.0203125,1.5 10.5,1.5 Z" id="user"></path>
            </g>
        </g>
    </g>
</svg>